<?xml version="1.0" encoding="utf-8"?>
<!-- Svg Vector Icons : http://www.onlinewebfonts.com/icon -->
<!DOCTYPE svg PUBLIC "-//W3C//DTD SVG 1.1//EN" "http://www.w3.org/Graphics/SVG/1.1/DTD/svg11.dtd">
<svg version="1.1" xmlns="http://www.w3.org/2000/svg" xmlns:xlink="http://www.w3.org/1999/xlink" x="0px" y="0px" viewBox="0 0 256 256" enable-background="new 0 0 256 256" xml:space="preserve">
<metadata> Svg Vector Icons : http://www.onlinewebfonts.com/icon </metadata>
<g><g><g><path fill="#000000" d="M21,42.4c-3.2,0.8-6.3,2.9-8,5.3c-3.2,4.3-3-1.8-3,86.6v79.9h118h118v-79.9c0-88.7,0.2-82.3-3.1-86.7c-1.2-1.7-2.6-2.8-4.9-3.9l-3.2-1.6L129,41.9C46.1,41.8,22.7,41.9,21,42.4z M235.9,48.2c2,1,3.8,3.1,4.6,5.5c0.4,1.2,0.5,22.1,0.5,78.2v76.7H128H15.1v-76.7c0-56.1,0.1-77.1,0.5-78.2c0.8-2.3,2.5-4.4,4.5-5.5c1.7-0.9,3.5-0.9,107.9-0.9C233,47.3,234.1,47.3,235.9,48.2z"/><path fill="#000000" d="M89.7,54.3c-4.3,2.9-4.5,8.9-0.4,11.9l1.5,1.1l58.8,0.1l58.8,0.1l1.8-1.1c4.6-2.6,4.7-9.5,0.2-12.3c-1.5-0.9-2.4-0.9-60.3-0.9H91.3L89.7,54.3z"/><path fill="#000000" d="M28.6,56.7c-3.9,1.7-2.5,7.7,1.8,7.7c4.5,0,5.7-5.9,1.5-7.7C30.1,55.9,30.4,55.9,28.6,56.7z"/><path fill="#000000" d="M40.9,56.9c-3.9,1.9-2.5,7.5,1.8,7.5c1.3,0,2-0.3,2.9-1.4c1.4-1.6,1.5-2.7,0.5-4.5c-0.5-1-2.6-2.4-3.6-2.4C42.5,56,41.8,56.4,40.9,56.9z"/><path fill="#000000" d="M53.5,56.7c-4,1.7-2.9,7.6,1.4,7.6c3.6,0,5.6-4.2,3-6.6C56.4,56.2,55.2,55.9,53.5,56.7z"/><path fill="#000000" d="M121.5,81.2C106.9,83.8,95.7,94.5,92,109c-1.4,5.5-1.1,14.7,0.7,20.1c4.1,12.1,13.7,21.2,26.1,24.5c4.2,1.2,14.2,1.2,18.4,0c6.5-1.8,13.6-5.9,17.8-10.6c6.7-7.4,9.8-15.4,9.8-25.5c0-18.2-12.7-33.2-30.7-36.4C129.4,80.3,126.2,80.3,121.5,81.2z M138,88.5c8.2,3,13.9,8.1,17.7,15.7c8.5,17.2-1.1,38.3-19.9,43.4c-4.1,1.1-11.6,1.1-15.7,0c-9.9-2.7-18.2-10.5-21.4-20.1c-5.5-16.5,3.6-34.2,20.2-39.3c3.8-1.2,3.9-1.2,9.9-1.1C133.9,87.2,135.2,87.4,138,88.5z"/><path fill="#000000" d="M115.6,106l-2,2.1l5,5.1l5.1,5.1l-5.1,5.1l-5.1,5.1l2.2,2.2l2.2,2.2l5.1-5.1l5.1-5.1l5.1,5.1l5.1,5.1l2.2-2.2l2.2-2.2l-5.1-5.1l-5.1-5.1l5.1-5.1l5.1-5.1l-2.2-2.2l-2.2-2.2l-5.1,5.1l-5.1,5.1l-5-5c-2.7-2.7-5.1-4.9-5.2-4.9C117.7,104,116.7,104.9,115.6,106z"/><path fill="#000000" d="M90.8,171.4c-0.1,0.3-0.2,1.8-0.1,3.1l0.1,2.5l37,0.1l37,0.1V174v-3.2H128C97.2,170.8,91.1,170.9,90.8,171.4z"/><path fill="#000000" d="M54.3,192.7v3H128h73.7v-3v-3H128H54.3V192.7z"/></g></g></g>
</svg>